<?xml version="1.0" encoding="UTF-8" standalone="no"?>
<!DOCTYPE svg PUBLIC "-//W3C//DTD SVG 1.1//EN" "http://www.w3.org/Graphics/SVG/1.1/DTD/svg11.dtd">
<svg width="100%" height="100%" viewBox="0 0 1081 1081" version="1.1" xmlns="http://www.w3.org/2000/svg" xmlns:xlink="http://www.w3.org/1999/xlink" xml:space="preserve" xmlns:serif="http://www.serif.com/" style="fill-rule:evenodd;clip-rule:evenodd;stroke-linejoin:round;stroke-miterlimit:2;">
    <g transform="matrix(1,0,0,1,-5171,-1212)">
        <g id="Black" transform="matrix(1,0,0,1,5171.83,1212.77)">
            <rect x="0" y="0" width="1080" height="1080" style="fill:none;"/>
            <g transform="matrix(0.63327,-0.63327,0.63327,0.63327,-10.4285,3023.35)">
                <g>
                    <g transform="matrix(1,0,0,-1,1.36424e-12,-3052.29)">
                        <path d="M2395.33,-1912.16C2674.2,-1912.16 2900.62,-1685.75 2900.62,-1406.87C2900.62,-1127.99 2674.2,-901.58 2395.33,-901.58C2567.69,-901.58 2707.62,-1041.51 2707.62,-1213.87C2707.62,-1386.23 2567.69,-1526.17 2395.33,-1526.17C2501.85,-1526.17 2588.33,-1612.64 2588.33,-1719.16C2588.33,-1825.68 2501.85,-1912.16 2395.33,-1912.16Z" style="fill:rgb(21,9,10);"/>
                    </g>
                    <path d="M2395.33,-901.58C2116.45,-901.58 1890.04,-1127.99 1890.04,-1406.87C1890.04,-1685.73 2116.42,-1912.13 2395.27,-1912.16C2288.78,-1912.13 2202.33,-1825.66 2202.33,-1719.16C2202.33,-1612.64 2288.81,-1526.17 2395.33,-1526.17C2222.97,-1526.17 2083.03,-1386.23 2083.03,-1213.87C2083.03,-1041.51 2222.97,-901.58 2395.33,-901.58Z" style="fill:rgb(21,9,10);"/>
                </g>
            </g>
        </g>
    </g>
</svg>
